<svg width="128" height="128" viewBox="0 0 128 128" fill="none" xmlns="http://www.w3.org/2000/svg">
<circle cx="64" cy="64" r="64" fill="#FF5722"/>
<path d="M32.7497 36.6458C32.8979 36.2612 33.2714 36 33.6835 36H60C60.5523 36 61 36.4477 61 37V91C61 91.5523 60.5523 92 60 92H33.6717C33.2655 92 32.8971 91.7485 32.7446 91.372C24.9757 72.1778 23.6223 60.3308 32.7497 36.6458Z" fill="black"/>
<line x1="33" y1="64" x2="4.37114e-07" y2="64" stroke="black" stroke-width="10"/>
<path d="M93 45C93 44.4477 93.4477 44 94 44H109.447C109.791 44 110.116 44.1841 110.297 44.4765C120.718 61.2941 117.987 69.5743 110.288 83.4815C110.112 83.7989 109.775 84 109.412 84H94C93.4477 84 93 83.5523 93 83V45Z" fill="black"/>
<line x1="123" y1="64" x2="115" y2="64" stroke="black" stroke-width="10" stroke-linecap="square"/>
<rect x="78.0462" y="50" width="27.7659" height="6.61905" rx="3.30952" transform="rotate(0.399664 78.0462 50)" fill="black"/>
<rect x="78.0462" y="72" width="27.7659" height="6.61905" rx="3.30952" transform="rotate(0.399664 78.0462 72)" fill="black"/>
</svg>
