<svg width="560" height="420" viewBox="0 0 560 420" fill="none" xmlns="http://www.w3.org/2000/svg">
<g clip-path="url(#clip0)">
<path d="M434.9 302.6L425.9 300.6C425.9 300.6 377.45 302.98 343.8 313.29L308.07 312.92C308.07 312.92 325.57 293.08 297.07 278.01C297.07 278.01 332.99 265.86 311.71 210.38L295.83 178.87C295.83 178.87 326.64 169.4 338.41 161.95C350.18 154.5 366.25 140.68 366.25 140.68C366.25 140.68 383.04 126.07 365.05 111.46C365.05 111.46 353.37 101.02 337.47 118.98C337.47 118.98 326.52 128.69 318.79 129.06L229.57 112.3L197.41 118.75C197.41 118.75 186.47 123.93 188.13 136.34L189.85 145.27C189.85 145.27 154.65 162.61 145.96 171.66C145.96 171.66 134.39 183.46 144.33 195.46C144.33 195.46 149.96 202.1 161.33 200.18L198.12 183.94L203.71 210.46C203.71 210.46 204.92 216.53 212.39 215.63C212.39 215.63 221.76 256.17 238.33 275.31L230.06 298.11C230.06 298.11 229.13 308.22 234.93 311.56L202.15 305.67C202.15 305.67 156.48 295.74 143.32 306.18L150.17 323.65C150.17 323.65 158.44 333.05 160.5 344.59L238.07 347.06L242.07 345.06L258.55 345.17L260.98 347.08L358.57 351.08L404.68 344.22L417.48 335.68L420.87 331.76L427.99 323.03C427.99 323.03 433.59 311.72 432.32 307.82L434.89 305.42L434.9 302.6ZM256.12 311.31L265.41 304.14L275.68 312.31L256.12 311.31Z" fill="white"/>
<path d="M156.97 334.16L196.16 335.68C197.449 335.68 198.685 335.168 199.597 334.257C200.508 333.345 201.02 332.109 201.02 330.82C201.017 329.532 200.504 328.297 199.594 327.386C198.683 326.475 197.448 325.963 196.16 325.96L150.99 324.49" fill="url(#paint0_linear)"/>
<path d="M156.97 334.16L196.16 335.68C197.449 335.68 198.685 335.168 199.597 334.257C200.508 333.345 201.02 332.109 201.02 330.82C201.017 329.532 200.504 328.297 199.594 327.386C198.683 326.475 197.448 325.963 196.16 325.96L150.99 324.49" stroke="#3A3836" stroke-width="2" stroke-linecap="round" stroke-linejoin="round"/>
<path d="M321.123 117.136C321.941 89.3899 300.538 66.2464 273.317 65.4433C246.095 64.6401 223.364 86.4814 222.546 114.227C221.727 141.973 243.131 165.116 270.352 165.92C297.573 166.723 320.304 144.881 321.123 117.136Z" fill="white" stroke="#3A3836" stroke-width="2" stroke-linecap="round" stroke-linejoin="round"/>
<path d="M291.42 161.95C291.42 161.95 288.65 169.59 310.57 208.33C315.561 216.971 318.499 226.643 319.16 236.6C319.93 250.2 316.43 267.11 298.26 278.01" fill="white"/>
<path d="M291.42 161.95C291.42 161.95 288.65 169.59 310.57 208.33C315.561 216.971 318.499 226.643 319.16 236.6C319.93 250.2 316.43 267.11 298.26 278.01" stroke="#3A3836" stroke-width="2" stroke-linecap="round" stroke-linejoin="round"/>
<path d="M287.06 239.6L277.31 253.3C280.87 261.43 294.12 274.77 306.14 284.75C309.872 287.86 312.299 292.259 312.94 297.075C313.581 301.891 312.389 306.772 309.6 310.75V310.75C306.827 314.717 302.669 317.501 297.946 318.554C293.222 319.607 288.275 318.853 284.08 316.44C204.32 270.29 208.24 180.44 208.24 180.44L163.03 199.6C161.029 200.45 158.88 200.896 156.706 200.914C154.532 200.932 152.376 200.521 150.362 199.704C148.347 198.888 146.513 197.682 144.965 196.156C143.417 194.63 142.185 192.813 141.34 190.81V190.81C139.879 187.371 139.626 183.538 140.623 179.937C141.62 176.335 143.808 173.178 146.83 170.98C162.52 159.5 193.77 139.23 225.83 133.25" stroke="#3A3836" stroke-width="2" stroke-linecap="round" stroke-linejoin="round"/>
<path d="M319.74 129.06C319.74 129.06 327.63 128.66 343.64 113.51C345.506 111.722 347.75 110.376 350.205 109.569C352.66 108.762 355.265 108.515 357.828 108.847C360.391 109.179 362.847 110.081 365.016 111.487C367.184 112.892 369.01 114.766 370.36 116.97L370.69 117.51C372.649 120.723 373.501 124.49 373.117 128.234C372.732 131.978 371.132 135.492 368.56 138.24C360.68 146.6 347.66 158.24 330.74 165.7C309.86 174.9 297.91 178.87 297.91 178.87" stroke="#3A3836" stroke-width="2" stroke-linecap="round" stroke-linejoin="round"/>
<path d="M299.48 157.65C299.48 157.65 301.56 169.01 297.18 178.8Z" fill="white"/>
<path d="M299.48 157.65C299.48 157.65 301.56 169.01 297.18 178.8" stroke="#3A3836" stroke-width="2" stroke-linecap="round" stroke-linejoin="round"/>
<path d="M208.24 180.39C208.24 180.39 224.64 161.26 220.56 134.95Z" fill="white"/>
<path d="M208.24 180.39C208.24 180.39 224.64 161.26 220.56 134.95" stroke="#3A3836" stroke-width="2" stroke-linecap="round" stroke-linejoin="round"/>
<path d="M233.74 148.6C233.74 148.6 230.94 178.47 208.74 183.95Z" fill="white"/>
<path d="M233.74 148.6C233.74 148.6 230.94 178.47 208.74 183.95" stroke="#3A3836" stroke-width="2" stroke-linecap="round" stroke-linejoin="round"/>
<path d="M315.44 92.2C310.16 90.6 304.83 89.6 291.07 90.42C269.32 91.69 260.25 100.13 256.59 105.76C254.82 108.47 254.59 113.93 254.95 117.13C256.28 128.13 260.62 155.3 306.95 149.36" fill="white"/>
<path d="M315.44 92.2C310.16 90.6 304.83 89.6 291.07 90.42C269.32 91.69 260.25 100.13 256.59 105.76C254.82 108.47 254.59 113.93 254.95 117.13C256.28 128.13 260.62 155.3 306.95 149.36" stroke="#3A3836" stroke-width="2" stroke-linecap="round" stroke-linejoin="round"/>
<path d="M245.99 63.9L248.44 69.84" stroke="#3A3836" stroke-width="2" stroke-linecap="round" stroke-linejoin="round"/>
<path d="M222.56 114.23L201.96 117.37C199.799 117.699 197.725 118.452 195.858 119.588C193.99 120.723 192.367 122.217 191.08 123.984C189.794 125.751 188.871 127.756 188.365 129.882C187.858 132.008 187.779 134.213 188.13 136.37L189.45 144.48" fill="white"/>
<path d="M222.56 114.23L201.96 117.37C199.799 117.699 197.725 118.452 195.858 119.588C193.99 120.723 192.367 122.217 191.08 123.984C189.794 125.751 188.871 127.756 188.365 129.882C187.858 132.008 187.779 134.213 188.13 136.37L189.45 144.48" stroke="#3A3836" stroke-width="2" stroke-linecap="round" stroke-linejoin="round"/>
<path d="M198.1 184.79L203.69 210.46C203.891 211.386 204.28 212.261 204.834 213.03C205.387 213.799 206.093 214.446 206.907 214.931C207.721 215.416 208.626 215.728 209.566 215.848C210.506 215.969 211.46 215.894 212.37 215.63V215.63" fill="white"/>
<path d="M198.1 184.79L203.69 210.46C203.891 211.386 204.28 212.261 204.834 213.03C205.387 213.799 206.093 214.446 206.907 214.931C207.721 215.416 208.626 215.728 209.566 215.848C210.506 215.969 211.46 215.894 212.37 215.63V215.63" stroke="#3A3836" stroke-width="2" stroke-linecap="round" stroke-linejoin="round"/>
<path d="M235.7 127.78C239.091 127.78 241.84 125.031 241.84 121.64C241.84 118.249 239.091 115.5 235.7 115.5C232.309 115.5 229.56 118.249 229.56 121.64C229.56 125.031 232.309 127.78 235.7 127.78Z" fill="white" stroke="#3A3836" stroke-width="2" stroke-linecap="round" stroke-linejoin="round"/>
<g opacity="0.7">
<path opacity="0.7" d="M242.36 62.78C246.48 62.78 249.82 59.44 249.82 55.32C249.82 51.1999 246.48 47.86 242.36 47.86C238.24 47.86 234.9 51.1999 234.9 55.32C234.9 59.44 238.24 62.78 242.36 62.78Z" fill="#FF6C37"/>
</g>
<path d="M242.52 63.96C246.64 63.96 249.98 60.6201 249.98 56.5C249.98 52.38 246.64 49.04 242.52 49.04C238.4 49.04 235.06 52.38 235.06 56.5C235.06 60.6201 238.4 63.96 242.52 63.96Z" fill="#FD8753" stroke="#3A3836" stroke-width="2" stroke-miterlimit="10"/>
<path d="M255.75 312.37L277.08 312.64" stroke="#3A3836" stroke-width="2" stroke-linecap="round" stroke-linejoin="round"/>
<path d="M308.08 312.96L347.4 313.37C347.4 313.37 405.4 295.91 433.83 302.12C433.83 302.12 437.04 304.05 432.33 307.82C432.385 311.837 431.559 315.817 429.909 319.48C428.259 323.143 425.825 326.4 422.78 329.02V329.02C419.723 333.894 415.613 338.02 410.752 341.097C405.891 344.174 400.403 346.123 394.69 346.8L378.38 348.74C365.198 350.299 351.915 350.831 338.65 350.33L262.21 347.45C261.601 347.422 261.023 347.169 260.59 346.74L259.59 345.74C259.14 345.288 258.528 345.032 257.89 345.03H242.08C241.691 345.023 241.305 345.11 240.957 345.284C240.609 345.458 240.308 345.714 240.08 346.03V346.03C239.844 346.354 239.531 346.615 239.17 346.789C238.809 346.964 238.411 347.046 238.01 347.03L160.33 343.6C160.33 343.6 156.48 330.28 150.56 324.66L146.25 311.39C146.25 311.39 133.98 303.05 160.03 301.87C186.08 300.69 235.21 312.23 235.21 312.23" stroke="#3A3836" stroke-width="2" stroke-linecap="round" stroke-linejoin="round"/>
<path d="M347.4 313.37L338.35 315.93C329.465 318.44 320.262 319.649 311.03 319.52L166.33 317.44C161.969 317.413 157.643 316.659 153.53 315.21C150.159 314.081 147.084 312.212 144.53 309.74" stroke="#3A3836" stroke-width="2" stroke-linecap="round" stroke-linejoin="round"/>
<path d="M265.41 304.18L254.15 312.6C251.551 314.543 248.395 315.595 245.15 315.6C242.656 315.599 240.202 314.981 238.006 313.799C235.81 312.618 233.941 310.911 232.566 308.831C231.191 306.75 230.353 304.362 230.127 301.878C229.901 299.395 230.293 296.894 231.27 294.6L238.78 276.99" stroke="#3A3836" stroke-width="2" stroke-linecap="round" stroke-linejoin="round"/>
<path opacity="0.7" d="M231.48 336.43C234.059 336.43 236.15 334.339 236.15 331.76C236.15 329.181 234.059 327.09 231.48 327.09C228.901 327.09 226.81 329.181 226.81 331.76C226.81 334.339 228.901 336.43 231.48 336.43Z" fill="url(#paint1_linear)"/>
<path opacity="0.7" d="M215.96 336.43C218.539 336.43 220.63 334.339 220.63 331.76C220.63 329.181 218.539 327.09 215.96 327.09C213.381 327.09 211.29 329.181 211.29 331.76C211.29 334.339 213.381 336.43 215.96 336.43Z" fill="url(#paint2_linear)"/>
<path d="M231.48 336.43C234.059 336.43 236.15 334.339 236.15 331.76C236.15 329.181 234.059 327.09 231.48 327.09C228.901 327.09 226.81 329.181 226.81 331.76C226.81 334.339 228.901 336.43 231.48 336.43Z" fill="url(#paint3_linear)" stroke="#3A3836" stroke-width="2" stroke-linecap="round" stroke-linejoin="round"/>
<path d="M215.96 336.43C218.539 336.43 220.63 334.339 220.63 331.76C220.63 329.181 218.539 327.09 215.96 327.09C213.381 327.09 211.29 329.181 211.29 331.76C211.29 334.339 213.381 336.43 215.96 336.43Z" fill="url(#paint4_linear)" stroke="#3A3836" stroke-width="2" stroke-linecap="round" stroke-linejoin="round"/>
<path d="M156.97 334.16L196.16 335.68C197.449 335.68 198.685 335.168 199.597 334.257C200.508 333.345 201.02 332.109 201.02 330.82C201.017 329.532 200.504 328.297 199.594 327.386C198.683 326.475 197.448 325.963 196.16 325.96L150.99 324.49" stroke="#3A3836" stroke-width="2" stroke-linecap="round" stroke-linejoin="round"/>
<path d="M487.21 219.29C487.187 214.784 486.212 210.333 484.35 206.23C482.622 202.389 479.982 199.029 476.66 196.44C473.596 194.064 469.905 192.635 466.04 192.33C462.222 192.078 458.418 192.98 455.12 194.92C453.043 188.06 449.116 181.904 443.77 177.13C438.914 172.785 432.725 170.222 426.22 169.86C419.771 169.623 413.439 171.627 408.3 175.53C402.689 179.825 398.41 185.622 395.96 192.25C392.445 189.168 388.045 187.278 383.39 186.85C378.81 186.505 374.244 187.672 370.39 190.17C366.209 192.905 362.858 196.734 360.7 201.24C358.344 206.092 357.149 211.426 357.21 216.82L487.21 219.29Z" fill="#FFDE83"/>
<path d="M116.62 93.49C129.455 93.49 139.86 83.0851 139.86 70.25C139.86 57.4149 129.455 47.01 116.62 47.01C103.785 47.01 93.38 57.4149 93.38 70.25C93.38 83.0851 103.785 93.49 116.62 93.49Z" fill="#FFDE83"/>
<path d="M135.83 55.12C143.71 51.96 149.32 50.88 150.37 52.7C152.19 55.84 139.68 66.47 122.42 76.43C105.16 86.39 89.73 91.92 87.91 88.77C87.01 87.2 89.68 83.77 94.74 79.46" stroke="#3A3836" stroke-width="2" stroke-linecap="round" stroke-linejoin="round"/>
<path d="M170.83 250.06L177.83 252.34L170.83 254.6L168.54 261.6L166.26 254.6L159.26 252.32L166.26 250.04L168.54 243.04L170.83 250.06Z" fill="white" stroke="#3A3836" stroke-width="2" stroke-miterlimit="10"/>
<path d="M392.94 57.76L399.94 60.04L392.94 62.33L390.65 69.33L388.37 62.33L381.37 60.04L388.37 57.76L390.65 50.76L392.94 57.76Z" fill="white" stroke="#3A3836" stroke-width="2" stroke-miterlimit="10"/>
<path d="M86.83 185.37L93.83 187.65L86.83 189.94L84.55 196.94L82.27 189.94L75.27 187.65L82.27 185.37L84.55 178.37L86.83 185.37Z" fill="white" stroke="#3A3836" stroke-width="2" stroke-miterlimit="10"/>
<g style="mix-blend-mode:multiply">
<path d="M354.03 381.16H218.58C215.543 381.16 213.08 383.62 213.08 386.655C213.08 389.69 215.543 392.15 218.58 392.15H354.03C357.068 392.15 359.53 389.69 359.53 386.655C359.53 383.62 357.068 381.16 354.03 381.16Z" fill="#E5E5E5"/>
</g>
<path d="M284.21 175.08H275.69C275.193 175.08 274.79 175.483 274.79 175.98V184.79C274.79 185.287 275.193 185.69 275.69 185.69H284.21C284.707 185.69 285.11 185.287 285.11 184.79V175.98C285.11 175.483 284.707 175.08 284.21 175.08Z" stroke="#3A3836" stroke-width="2" stroke-linecap="round" stroke-linejoin="round"/>
</g>
<defs>
<linearGradient id="paint0_linear" x1="201.02" y1="330.09" x2="150.99" y2="330.09" gradientUnits="userSpaceOnUse">
<stop stop-color="#FF6D37"/>
<stop offset="0.54" stop-color="#FA9139"/>
<stop offset="1" stop-color="#F7AC3B"/>
</linearGradient>
<linearGradient id="paint1_linear" x1="236.15" y1="331.76" x2="226.81" y2="331.76" gradientUnits="userSpaceOnUse">
<stop stop-color="#FF7002"/>
<stop offset="0.3" stop-color="#FE7304"/>
<stop offset="0.5" stop-color="#FC7C0A"/>
<stop offset="0.68" stop-color="#F88B15"/>
<stop offset="0.84" stop-color="#F3A125"/>
<stop offset="0.98" stop-color="#ECBD39"/>
<stop offset="1" stop-color="#EBC03B"/>
</linearGradient>
<linearGradient id="paint2_linear" x1="3687.83" y1="3504.18" x2="3775.16" y2="3504.18" gradientUnits="userSpaceOnUse">
<stop stop-color="#FF7002"/>
<stop offset="0.3" stop-color="#FE7304"/>
<stop offset="0.5" stop-color="#FC7C0A"/>
<stop offset="0.68" stop-color="#F88B15"/>
<stop offset="0.84" stop-color="#F3A125"/>
<stop offset="0.98" stop-color="#ECBD39"/>
<stop offset="1" stop-color="#EBC03B"/>
</linearGradient>
<linearGradient id="paint3_linear" x1="1672.73" y1="2986.75" x2="1760.06" y2="2986.75" gradientUnits="userSpaceOnUse">
<stop stop-color="#FF6D37"/>
<stop offset="0.54" stop-color="#FA9139"/>
<stop offset="1" stop-color="#F7AC3B"/>
</linearGradient>
<linearGradient id="paint4_linear" x1="1512.26" y1="2986.75" x2="1599.5" y2="2986.75" gradientUnits="userSpaceOnUse">
<stop stop-color="#FF6D37"/>
<stop offset="0.54" stop-color="#FA9139"/>
<stop offset="1" stop-color="#F7AC3B"/>
</linearGradient>
<clipPath id="clip0">
<rect width="415.2" height="345.15" fill="white" transform="translate(72 47)"/>
</clipPath>
</defs>
</svg>
